<svg xmlns="http://www.w3.org/2000/svg" version="1.1" xmlns:xlink="http://www.w3.org/1999/xlink" width="1000" height="1000"><style>
    #light-icon {
      display: inline;
    }
    #dark-icon {
      display: none;
    }

    @media (prefers-color-scheme: dark) {
      #light-icon {
        display: none;
      }
      #dark-icon {
        display: inline;
      }
    }
  </style><g id="light-icon"><svg xmlns="http://www.w3.org/2000/svg" version="1.1" xmlns:xlink="http://www.w3.org/1999/xlink" width="1000" height="1000"><g clip-path="url(#SvgjsClipPath1090)"><rect width="1000" height="1000" fill="#ffffff"></rect><g transform="matrix(2.4154589371980677,0,0,2.4154589371980677,0,61.59420289855069)"><svg xmlns="http://www.w3.org/2000/svg" version="1.1" xmlns:xlink="http://www.w3.org/1999/xlink" width="414" height="363"><svg width="414" height="363" viewBox="0 0 414 363" fill="none" xmlns="http://www.w3.org/2000/svg">
<path d="M110.303 247.687L194.127 203.306L196.321 298.221C196.321 334.986 161.65 353.881 130.052 360.472C122.737 361.937 109.425 363.402 102.403 360.033C95.9664 355.638 90.7 343.335 88.5056 336.157C78.8505 305.251 78.2653 265.85 110.303 247.834V247.687Z" fill="black"></path>
<path d="M100.647 131.094L181.253 181.041L100.647 230.989C68.9025 249.591 35.2558 229.231 13.4587 205.209C8.48481 199.643 0.438869 188.804 0 181.188C0.585159 173.425 8.48481 162.585 13.4587 157.166C35.2558 133.144 68.9025 112.784 100.647 131.24V131.094Z" fill="black"></path>
<path d="M217.533 298.221L219.874 203.306L303.698 247.834C335.735 265.85 335.15 305.251 325.495 336.157C323.301 343.335 317.888 355.638 311.598 360.033C304.576 363.548 291.263 362.083 283.949 360.472C252.35 353.881 217.679 334.986 217.533 298.221Z" fill="black"></path>
<path d="M196.321 63.8624L193.98 158.777L110.156 114.249C78.1188 96.2331 78.704 56.8317 88.3591 25.9257C90.5535 18.7485 95.9662 6.4447 102.257 2.05049C109.279 -1.46488 122.591 -0.00014592 129.905 1.61107C161.504 8.20238 196.175 27.0975 196.321 63.8624Z" fill="black"></path>
<path d="M313.207 230.989L232.602 181.041L313.207 131.094C344.952 112.491 378.599 132.851 400.396 156.873C405.37 162.439 413.416 173.278 413.855 180.895C413.269 188.658 405.37 199.497 400.396 204.916C378.599 228.938 344.952 249.298 313.207 230.842V230.989Z" fill="black"></path>
<path d="M303.698 114.395L219.874 158.777L217.68 63.862C217.68 27.0971 252.35 8.20199 283.949 1.61067C291.263 0.145932 304.576 -1.31881 311.598 2.05009C318.034 6.4443 323.301 18.7481 325.495 25.9253C335.15 56.8313 335.736 96.2327 303.698 114.249V114.395Z" fill="black"></path>
<path d="M206.999 193.491C213.867 193.491 219.434 187.917 219.434 181.041C219.434 174.165 213.867 168.591 206.999 168.591C200.132 168.591 194.564 174.165 194.564 181.041C194.564 187.917 200.132 193.491 206.999 193.491Z" fill="black"></path>
</svg></svg></g></g><defs><clipPath id="SvgjsClipPath1090"><rect width="1000" height="1000" x="0" y="0" rx="0" ry="0"></rect></clipPath></defs></svg></g><g id="dark-icon"><svg xmlns="http://www.w3.org/2000/svg" version="1.1" xmlns:xlink="http://www.w3.org/1999/xlink" width="1000" height="1000"><g><g transform="matrix(2.4154589371980677,0,0,2.4154589371980677,0,61.59420289855069)" style="filter: invert(100%)"><svg xmlns="http://www.w3.org/2000/svg" version="1.1" xmlns:xlink="http://www.w3.org/1999/xlink" width="414" height="363"><svg width="414" height="363" viewBox="0 0 414 363" fill="none" xmlns="http://www.w3.org/2000/svg">
<path d="M110.303 247.687L194.127 203.306L196.321 298.221C196.321 334.986 161.65 353.881 130.052 360.472C122.737 361.937 109.425 363.402 102.403 360.033C95.9664 355.638 90.7 343.335 88.5056 336.157C78.8505 305.251 78.2653 265.85 110.303 247.834V247.687Z" fill="black"></path>
<path d="M100.647 131.094L181.253 181.041L100.647 230.989C68.9025 249.591 35.2558 229.231 13.4587 205.209C8.48481 199.643 0.438869 188.804 0 181.188C0.585159 173.425 8.48481 162.585 13.4587 157.166C35.2558 133.144 68.9025 112.784 100.647 131.24V131.094Z" fill="black"></path>
<path d="M217.533 298.221L219.874 203.306L303.698 247.834C335.735 265.85 335.15 305.251 325.495 336.157C323.301 343.335 317.888 355.638 311.598 360.033C304.576 363.548 291.263 362.083 283.949 360.472C252.35 353.881 217.679 334.986 217.533 298.221Z" fill="black"></path>
<path d="M196.321 63.8624L193.98 158.777L110.156 114.249C78.1188 96.2331 78.704 56.8317 88.3591 25.9257C90.5535 18.7485 95.9662 6.4447 102.257 2.05049C109.279 -1.46488 122.591 -0.00014592 129.905 1.61107C161.504 8.20238 196.175 27.0975 196.321 63.8624Z" fill="black"></path>
<path d="M313.207 230.989L232.602 181.041L313.207 131.094C344.952 112.491 378.599 132.851 400.396 156.873C405.37 162.439 413.416 173.278 413.855 180.895C413.269 188.658 405.37 199.497 400.396 204.916C378.599 228.938 344.952 249.298 313.207 230.842V230.989Z" fill="black"></path>
<path d="M303.698 114.395L219.874 158.777L217.68 63.862C217.68 27.0971 252.35 8.20199 283.949 1.61067C291.263 0.145932 304.576 -1.31881 311.598 2.05009C318.034 6.4443 323.301 18.7481 325.495 25.9253C335.15 56.8313 335.736 96.2327 303.698 114.249V114.395Z" fill="black"></path>
<path d="M206.999 193.491C213.867 193.491 219.434 187.917 219.434 181.041C219.434 174.165 213.867 168.591 206.999 168.591C200.132 168.591 194.564 174.165 194.564 181.041C194.564 187.917 200.132 193.491 206.999 193.491Z" fill="black"></path>
</svg></svg></g></g></svg></g></svg>