<svg width="40" height="60" viewBox="0 0 40 60" fill="none" xmlns="http://www.w3.org/2000/svg">
<rect width="40" height="60" fill="#908F8F"/>
<g clip-path="url(#clip0_10_575)">
<rect width="1440" height="1098" transform="translate(-991 -862)" fill="white"/>
<g clip-path="url(#clip1_10_575)">
<path d="M2.33301 27.8997V7.76592C2.33313 5.20279 4.44391 3.23977 7.0127 3.45342L7.01367 3.45244C10.6686 3.74832 16.1097 5.56167 19.2129 7.49151H19.2139L19.6309 7.74151L19.6436 7.75029C19.6897 7.77891 19.8164 7.82451 20 7.82451C20.1798 7.82446 20.3042 7.77995 20.3525 7.75127L20.623 7.57647L20.6338 7.56963C23.7355 5.61802 29.2055 3.78364 32.8643 3.47002C32.8925 3.4676 32.9209 3.46613 32.9492 3.46611H33.0293C35.5621 3.28779 37.6659 5.21315 37.666 7.78252V27.8997C37.6659 29.996 35.9986 31.9281 33.8906 32.1917L33.8867 32.1927L33.3369 32.2591L33.3359 32.2581C29.8321 32.7267 24.3731 34.5296 21.2822 36.2317C20.8751 36.4666 20.4037 36.554 19.9893 36.554C19.5856 36.554 19.1337 36.4703 18.7354 36.2591V36.261L18.6689 36.2269C18.6581 36.2214 18.6473 36.2161 18.6367 36.2103C15.5441 34.519 10.0784 32.7241 6.58398 32.2571H6.58008L6.10938 32.1907V32.1917C4.0013 31.9282 2.33313 29.9961 2.33301 27.8997ZM4.33301 27.8997C4.33313 28.9342 5.15232 29.9374 6.1543 30.1712L6.35742 30.2073L6.37012 30.2083V30.2093L6.84766 30.2747H6.84863C10.5801 30.7734 16.2659 32.6393 19.5762 34.4446L19.6299 34.472L19.6689 34.4915C19.7117 34.5153 19.8265 34.554 19.9893 34.554C20.1535 34.554 20.2567 34.5155 20.2832 34.5003L20.2998 34.4905C23.6083 32.664 29.3279 30.7745 33.085 30.2747L33.0957 30.2737L33.6465 30.2064C34.7364 30.0677 35.6659 29.0017 35.666 27.8997V7.78252C35.6659 6.37368 34.5391 5.34433 33.1338 5.46221C33.106 5.46455 33.0777 5.46611 33.0498 5.46611H32.999C29.6568 5.76181 24.5207 7.4877 21.6992 9.26299L21.4258 9.43877C21.4206 9.44213 21.4154 9.44625 21.4102 9.44951C20.9731 9.72068 20.4577 9.82446 20 9.82451C19.5464 9.82451 19.0361 9.72207 18.6016 9.45635L18.1855 9.20733C18.1807 9.20439 18.1757 9.20058 18.1709 9.19756C15.3382 7.43109 10.1915 5.71694 6.85254 5.44658L6.84961 5.44561C5.45367 5.3283 4.33312 6.36393 4.33301 7.76592V27.8997Z" fill="#9DCB94"/>
<path d="M19 34.1504V9.15039C19 8.59811 19.4477 8.15039 20 8.15039C20.5523 8.15039 21 8.59811 21 9.15039V34.1504C21 34.7027 20.5523 35.1504 20 35.1504C19.4477 35.1504 19 34.7027 19 34.1504Z" fill="#9DCB94"/>
<path d="M12.917 13.1504L13.0195 13.1553C13.5237 13.2066 13.917 13.6327 13.917 14.1504C13.917 14.6681 13.5237 15.0942 13.0195 15.1455L12.917 15.1504H9.16699C8.61471 15.1504 8.16699 14.7027 8.16699 14.1504C8.16699 13.5981 8.61471 13.1504 9.16699 13.1504H12.917Z" fill="#9DCB94"/>
<path d="M14.167 18.1504L14.2695 18.1553C14.7737 18.2066 15.167 18.6327 15.167 19.1504C15.167 19.6681 14.7737 20.0942 14.2695 20.1455L14.167 20.1504H9.16699C8.61471 20.1504 8.16699 19.7027 8.16699 19.1504C8.16699 18.5981 8.61471 18.1504 9.16699 18.1504H14.167Z" fill="#9DCB94"/>
</g>
<path d="M13 57.125H27V59.5H13V57.125ZM18.8333 40.5V47.625H13L20 54.75L27 47.625H21.1667V40.5H18.8333Z" fill="#9DCB94"/>
</g>
<defs>
<clipPath id="clip0_10_575">
<rect width="1440" height="14554.2" fill="white" transform="translate(-991 -862)"/>
</clipPath>
<clipPath id="clip1_10_575">
<rect width="40" height="40" fill="white"/>
</clipPath>
</defs>
</svg>
