<svg width="246" height="52" viewBox="0 0 246 52" fill="none" xmlns="http://www.w3.org/2000/svg">
<path d="M19.5415 34.6332L34.5697 1.95898H36.9504L51.9787 34.6332H49.412L35.2269 3.45319H36.2561L22.1144 34.6332H19.5477H19.5415ZM25.0531 25.4385L25.8467 23.4297H45.4069L46.2005 25.4385H25.0531Z" fill="#020B00"/>
<path d="M55.7607 34.6319V10.2657H57.9989V16.9432L57.7633 16.1992C58.4452 14.24 59.5984 12.7272 61.2165 11.6731C62.8347 10.6129 64.8558 10.0859 67.2861 10.0859V12.3737C67.1931 12.3737 67.1001 12.3675 67.0071 12.3489C66.9141 12.3365 66.8211 12.3241 66.7281 12.3241C64.0188 12.3241 61.9047 13.1736 60.3796 14.8662C58.8544 16.565 58.0919 18.921 58.0919 21.9404V34.6381H55.7607V34.6319Z" fill="#020B00"/>
<path d="M69.437 12.2757V10.2669H84.0003V12.2757H69.437ZM80.547 34.819C78.4019 34.819 76.7589 34.23 75.6244 33.0458C74.4898 31.8616 73.9194 30.2434 73.9194 28.1912V4.94727H76.2506V27.9618C76.2506 29.518 76.6411 30.7146 77.4161 31.5578C78.1911 32.401 79.3132 32.8164 80.7764 32.8164C82.2395 32.8164 83.5601 32.3638 84.5582 31.4648L85.5378 33.1016C84.9178 33.6906 84.1615 34.1308 83.2749 34.4098C82.3883 34.6888 81.477 34.8314 80.547 34.8314V34.819Z" fill="#020B00"/>
<path d="M105.334 34.868C102.872 34.868 100.603 34.4588 98.5202 33.628C96.4371 32.8034 94.6206 31.644 93.083 30.1498C91.5455 28.6556 90.3551 26.9072 89.512 24.8984C88.6688 22.8896 88.2534 20.6886 88.2534 18.2953C88.2534 15.9021 88.675 13.6949 89.512 11.6923C90.3551 9.6835 91.5517 7.93509 93.1078 6.44088C94.664 4.94667 96.4743 3.78727 98.545 2.96266C100.616 2.13806 102.891 1.72266 105.383 1.72266C107.876 1.72266 109.94 2.09466 111.968 2.84486C113.989 3.58887 115.718 4.71107 117.151 6.20528L115.656 7.79249C114.224 6.39128 112.662 5.39928 110.963 4.80407C109.264 4.21507 107.423 3.91747 105.433 3.91747C103.319 3.91747 101.354 4.27707 99.5494 4.99007C97.7453 5.70928 96.1705 6.71988 94.8376 8.02189C93.4984 9.3301 92.4631 10.8553 91.7315 12.5975C90.9999 14.3397 90.6341 16.2369 90.6341 18.2891C90.6341 20.3414 90.9999 22.2448 91.7315 23.987C92.4631 25.7292 93.4984 27.2544 94.8376 28.5626C96.1767 29.8708 97.7453 30.8814 99.5494 31.5944C101.354 32.3136 103.313 32.667 105.433 32.667C107.361 32.667 109.19 32.3694 110.92 31.7804C112.65 31.1914 114.224 30.2118 115.656 28.8416L117.008 30.6644C115.545 32.0656 113.796 33.1134 111.757 33.814C109.717 34.5146 107.578 34.8618 105.34 34.8618L105.334 34.868ZM117.002 30.6644L114.714 30.3854V18.4379H117.002V30.6706V30.6644Z" fill="#020B00"/>
<path d="M131.894 34.8205C130.09 34.8205 128.528 34.5353 127.201 33.9587C125.88 33.3821 124.87 32.5637 124.169 31.5097C123.469 30.4495 123.122 29.2405 123.122 27.8703C123.122 26.6241 123.407 25.4957 123.983 24.4851C124.56 23.4744 125.515 22.6498 126.854 22.0112C128.193 21.3726 129.979 21.0564 132.223 21.0564H141.188V22.8792H132.272C129.755 22.8792 127.988 23.3442 126.978 24.2805C125.967 25.2167 125.459 26.3823 125.459 27.7835C125.459 29.3397 126.048 30.5859 127.232 31.5159C128.416 32.4521 130.078 32.9171 132.229 32.9171C134.38 32.9171 136.017 32.4521 137.431 31.5159C138.844 30.5797 139.898 29.2281 140.58 27.4549L141.231 29.0421C140.58 30.8153 139.464 32.2227 137.896 33.2643C136.321 34.3059 134.325 34.8267 131.9 34.8267L131.894 34.8205ZM140.667 34.6345V29.0793L140.574 28.2361V19.0848C140.574 16.8156 139.96 15.0858 138.733 13.9016C137.505 12.7174 135.707 12.1284 133.339 12.1284C131.659 12.1284 130.096 12.4136 128.646 12.9902C127.201 13.5668 125.961 14.3046 124.932 15.2098L123.766 13.5296C124.982 12.4384 126.445 11.5952 128.156 10.9876C129.867 10.38 131.659 10.0762 133.525 10.0762C136.544 10.0762 138.863 10.8388 140.481 12.364C142.099 13.8892 142.911 16.1584 142.911 19.1778V34.6283H140.673L140.667 34.6345Z" fill="#020B00"/>
<path d="M151.125 34.6319V10.2657H153.364V16.9432L153.128 16.1992C153.81 14.24 154.963 12.7272 156.581 11.6731C158.199 10.6129 160.221 10.0859 162.651 10.0859V12.3737C162.558 12.3737 162.465 12.3675 162.372 12.3489C162.279 12.3365 162.186 12.3241 162.093 12.3241C159.384 12.3241 157.269 13.1736 155.744 14.8662C154.219 16.565 153.457 18.921 153.457 21.9404V34.6381H151.125V34.6319Z" fill="#020B00"/>
<path d="M176.842 34.8194C174.573 34.8194 172.527 34.2986 170.704 33.257C168.882 32.2154 167.443 30.7584 166.389 28.8922C165.329 27.0259 164.802 24.8807 164.802 22.4503C164.802 20.0199 165.329 17.8375 166.389 15.9837C167.45 14.1299 168.888 12.6853 170.704 11.6437C172.527 10.6021 174.573 10.0813 176.842 10.0813C178.987 10.0813 180.928 10.5773 182.651 11.5755C184.381 12.5737 185.745 13.9873 186.762 15.8225C187.772 17.6577 188.281 19.8711 188.281 22.4503C188.281 25.0295 187.785 27.1623 186.787 29.0286C185.788 30.8948 184.431 32.327 182.701 33.3252C180.971 34.3234 179.018 34.8194 176.842 34.8194ZM176.985 32.7238C178.851 32.7238 180.525 32.296 182 31.4404C183.476 30.5848 184.648 29.382 185.503 27.8258C186.359 26.2695 186.787 24.4777 186.787 22.4565C186.787 20.4353 186.359 18.6063 185.503 17.0625C184.648 15.5249 183.482 14.3221 182 13.4665C180.525 12.6109 178.851 12.1831 176.985 12.1831C175.119 12.1831 173.445 12.6109 171.969 13.4665C170.494 14.3221 169.322 15.5187 168.466 17.0625C167.611 18.6001 167.183 20.3981 167.183 22.4565C167.183 24.5149 167.611 26.2695 168.466 27.8258C169.322 29.382 170.487 30.5848 171.969 31.4404C173.445 32.296 175.119 32.7238 176.985 32.7238ZM186.83 34.6334V26.6539L187.252 22.4069L186.787 18.1599V0H189.124V34.6334H186.836H186.83Z" fill="#020B00"/>
<path d="M207.463 34.8202C205.002 34.8202 202.832 34.2932 200.953 33.233C199.069 32.1728 197.593 30.7095 196.521 28.8433C195.448 26.9771 194.909 24.8443 194.909 22.4511C194.909 20.0579 195.411 17.8817 196.428 16.0341C197.438 14.1803 198.833 12.7294 200.606 11.6692C202.379 10.609 204.37 10.082 206.583 10.082C208.796 10.082 210.774 10.5966 212.535 11.6196C214.289 12.6488 215.678 14.0873 216.688 15.9349C217.699 17.7887 218.207 19.9277 218.207 22.3519C218.207 22.4449 218.201 22.5441 218.183 22.6557C218.164 22.7673 218.158 22.8789 218.158 23.0029H196.638V21.1801H216.899L215.963 22.0667C215.994 20.1695 215.597 18.4645 214.773 16.9579C213.948 15.4513 212.838 14.2671 211.437 13.4114C210.036 12.5558 208.418 12.128 206.583 12.128C204.748 12.128 203.167 12.5558 201.753 13.4114C200.34 14.2671 199.224 15.4513 198.418 16.9579C197.606 18.4707 197.203 20.1881 197.203 22.1163V22.5379C197.203 24.5281 197.649 26.2951 198.536 27.8327C199.422 29.3703 200.643 30.5731 202.2 31.4288C203.756 32.2844 205.529 32.7122 207.519 32.7122C209.075 32.7122 210.532 32.4332 211.884 31.869C213.235 31.3109 214.382 30.4553 215.312 29.3021L216.664 30.8397C215.604 32.148 214.277 33.1338 212.671 33.8034C211.065 34.473 209.336 34.8078 207.469 34.8078L207.463 34.8202Z" fill="#020B00"/>
<path d="M224.028 34.6319V10.2657H226.266V17.0362L225.938 16.2922C226.682 14.364 227.916 12.845 229.627 11.7413C231.338 10.6377 233.44 10.0859 235.926 10.0859C237.916 10.0859 239.652 10.4703 241.127 11.2267C242.603 11.9893 243.756 13.1426 244.581 14.6802C245.405 16.2178 245.82 18.1274 245.82 20.3966V34.6319H243.489V20.5826C243.489 17.8422 242.795 15.759 241.412 14.3268C240.03 12.8946 238.089 12.1815 235.603 12.1815C233.706 12.1815 232.057 12.5722 230.656 13.3472C229.255 14.1222 228.188 15.2134 227.457 16.6146C226.725 18.0158 226.359 19.696 226.359 21.6552V34.6319H224.028Z" fill="#020B00"/>
<path d="M125.626 51.9933C125.117 51.9933 124.627 51.9127 124.156 51.7453C123.691 51.5779 123.325 51.3609 123.071 51.1005L123.356 50.5425C123.598 50.7781 123.927 50.9765 124.336 51.1377C124.745 51.2989 125.179 51.3795 125.626 51.3795C126.072 51.3795 126.413 51.3237 126.68 51.2183C126.952 51.1129 127.151 50.9641 127.281 50.7781C127.411 50.5921 127.473 50.3937 127.473 50.1705C127.473 49.9039 127.399 49.6869 127.244 49.5195C127.089 49.3583 126.89 49.2281 126.642 49.1289C126.394 49.0297 126.115 48.9491 125.818 48.8809C125.514 48.8065 125.216 48.7321 124.913 48.6515C124.609 48.5709 124.336 48.4593 124.082 48.3229C123.828 48.1865 123.629 48.0005 123.474 47.7773C123.319 47.5541 123.245 47.2565 123.245 46.8907C123.245 46.5497 123.338 46.2397 123.518 45.9545C123.697 45.6693 123.976 45.4399 124.348 45.2663C124.72 45.0927 125.198 45.0059 125.781 45.0059C126.165 45.0059 126.549 45.0617 126.928 45.1671C127.306 45.2725 127.634 45.4213 127.913 45.6135L127.665 46.1901C127.368 45.9917 127.058 45.8491 126.729 45.7561C126.401 45.6631 126.078 45.6197 125.768 45.6197C125.353 45.6197 125.012 45.6755 124.745 45.7871C124.479 45.8987 124.28 46.0475 124.15 46.2335C124.02 46.4195 123.958 46.6303 123.958 46.8659C123.958 47.1325 124.032 47.3495 124.187 47.5169C124.342 47.6781 124.547 47.8083 124.795 47.9013C125.049 47.9943 125.322 48.0749 125.626 48.1493C125.929 48.2237 126.227 48.2981 126.525 48.3849C126.822 48.4717 127.095 48.5771 127.349 48.7135C127.603 48.8499 127.802 49.0235 127.957 49.2467C128.112 49.4699 128.186 49.7613 128.186 50.1209C128.186 50.4557 128.093 50.7657 127.913 51.0509C127.727 51.3361 127.448 51.5655 127.07 51.7391C126.692 51.9127 126.208 51.9995 125.619 51.9995L125.626 51.9933Z" fill="#020B00"/>
<path d="M131.237 51.9325V45.6828H128.819V45.0566H134.38V45.6828H131.962V51.9325H131.237Z" fill="#020B00"/>
<path d="M138.404 51.9941C137.523 51.9941 136.835 51.7399 136.333 51.2377C135.831 50.7355 135.577 49.9853 135.577 48.9995V45.0625H136.302V48.9747C136.302 49.7869 136.488 50.3883 136.854 50.7727C137.22 51.1571 137.74 51.3555 138.404 51.3555C139.067 51.3555 139.6 51.1633 139.966 50.7727C140.332 50.3883 140.518 49.7869 140.518 48.9747V45.0625H141.225V48.9995C141.225 49.9915 140.977 50.7355 140.474 51.2377C139.972 51.7399 139.284 51.9941 138.404 51.9941Z" fill="#020B00"/>
<path d="M143.636 51.9325V45.0566H146.438C147.17 45.0566 147.814 45.1992 148.366 45.4968C148.918 45.7882 149.352 46.1912 149.656 46.712C149.966 47.2329 150.121 47.8281 150.121 48.4977C150.121 49.1673 149.966 49.7687 149.656 50.2833C149.346 50.8041 148.918 51.2071 148.366 51.4985C147.814 51.7899 147.17 51.9387 146.438 51.9387H143.636V51.9325ZM144.367 51.3063H146.401C147.008 51.3063 147.542 51.1885 147.988 50.9467C148.434 50.7049 148.788 50.3763 149.036 49.9547C149.284 49.5331 149.408 49.0433 149.408 48.4977C149.408 47.9521 149.284 47.4561 149.036 47.0345C148.788 46.6129 148.441 46.2842 147.988 46.0486C147.542 45.8068 147.008 45.689 146.401 45.689H144.367V51.3125V51.3063Z" fill="#020B00"/>
<path d="M151.98 51.9325V45.0566H152.706V51.9325H151.98Z" fill="#020B00"/>
<path d="M158.181 51.9936C157.66 51.9936 157.183 51.9068 156.743 51.7332C156.302 51.5596 155.918 51.3116 155.596 50.9954C155.273 50.6792 155.019 50.3072 154.839 49.8856C154.659 49.464 154.566 48.999 154.566 48.4968C154.566 47.9946 154.659 47.5296 154.839 47.108C155.019 46.6864 155.273 46.3144 155.596 45.9982C155.918 45.682 156.302 45.434 156.743 45.2604C157.183 45.0868 157.66 45 158.187 45C158.714 45 159.185 45.0868 159.619 45.2604C160.059 45.434 160.438 45.6758 160.766 45.992C161.089 46.3082 161.343 46.674 161.523 47.1018C161.702 47.5296 161.789 47.9946 161.789 48.4968C161.789 48.999 161.696 49.464 161.523 49.8918C161.343 50.3196 161.089 50.6854 160.766 51.0016C160.444 51.3178 160.059 51.5596 159.619 51.7332C159.179 51.9068 158.702 51.9936 158.187 51.9936H158.181ZM158.181 51.3426C158.59 51.3426 158.974 51.2744 159.328 51.1318C159.675 50.9892 159.985 50.7908 160.239 50.5304C160.493 50.27 160.698 49.9724 160.841 49.6252C160.983 49.278 161.058 48.906 161.058 48.4906C161.058 48.0752 160.983 47.697 160.841 47.356C160.698 47.0088 160.493 46.7112 160.239 46.4508C159.985 46.1904 159.675 45.992 159.328 45.8494C158.974 45.7068 158.596 45.6386 158.181 45.6386C157.765 45.6386 157.387 45.7068 157.034 45.8494C156.681 45.992 156.371 46.1904 156.11 46.4508C155.85 46.7112 155.645 47.0088 155.503 47.356C155.36 47.697 155.286 48.0752 155.286 48.4906C155.286 48.906 155.36 49.2718 155.503 49.619C155.645 49.9662 155.85 50.27 156.11 50.5304C156.371 50.7908 156.681 50.9892 157.034 51.1318C157.387 51.2744 157.772 51.3426 158.181 51.3426Z" fill="#020B00"/>
<path d="M166.445 51.9325V45.0566H171.163V45.6828H167.177V51.9325H166.452H166.445ZM167.09 49.0185V48.3923H170.723V49.0185H167.09Z" fill="#020B00"/>
<path d="M172.887 51.9325V45.0566H173.612V51.3063H177.462V51.9325H172.881H172.887Z" fill="#020B00"/>
<path d="M181.771 51.9936C181.25 51.9936 180.773 51.9068 180.332 51.7332C179.892 51.5596 179.508 51.3116 179.185 50.9954C178.863 50.6792 178.609 50.3072 178.429 49.8856C178.249 49.464 178.156 48.999 178.156 48.4968C178.156 47.9946 178.249 47.5296 178.429 47.108C178.609 46.6864 178.863 46.3144 179.185 45.9982C179.508 45.682 179.892 45.434 180.332 45.2604C180.773 45.0868 181.25 45 181.777 45C182.304 45 182.775 45.0868 183.209 45.2604C183.649 45.434 184.027 45.6758 184.356 45.992C184.678 46.3082 184.933 46.674 185.112 47.1018C185.292 47.5296 185.379 47.9946 185.379 48.4968C185.379 48.999 185.286 49.464 185.112 49.8918C184.933 50.3196 184.678 50.6854 184.356 51.0016C184.034 51.3178 183.649 51.5596 183.209 51.7332C182.769 51.9068 182.292 51.9936 181.777 51.9936H181.771ZM181.771 51.3426C182.18 51.3426 182.564 51.2744 182.918 51.1318C183.265 50.9892 183.575 50.7908 183.829 50.5304C184.083 50.27 184.288 49.9724 184.43 49.6252C184.573 49.278 184.647 48.906 184.647 48.4906C184.647 48.0752 184.573 47.697 184.43 47.356C184.288 47.0088 184.083 46.7112 183.829 46.4508C183.575 46.1904 183.265 45.992 182.918 45.8494C182.564 45.7068 182.186 45.6386 181.771 45.6386C181.355 45.6386 180.977 45.7068 180.624 45.8494C180.27 45.992 179.96 46.1904 179.7 46.4508C179.44 46.7112 179.235 47.0088 179.092 47.356C178.95 47.697 178.875 48.0752 178.875 48.4906C178.875 48.906 178.95 49.2718 179.092 49.619C179.235 49.9662 179.44 50.27 179.7 50.5304C179.96 50.7908 180.27 50.9892 180.624 51.1318C180.977 51.2744 181.362 51.3426 181.771 51.3426Z" fill="#020B00"/>
<path d="M187.233 51.9325V45.0566H189.806C190.674 45.0566 191.362 45.2674 191.864 45.6828C192.366 46.0982 192.614 46.6749 192.614 47.4189C192.614 47.9025 192.503 48.3241 192.273 48.6713C192.044 49.0185 191.728 49.2913 191.306 49.4773C190.885 49.6633 190.389 49.7563 189.806 49.7563H187.636L187.958 49.4215V51.9387H187.233V51.9325ZM187.958 49.4773L187.636 49.1363H189.787C190.475 49.1363 190.996 48.9875 191.356 48.6837C191.715 48.3799 191.889 47.9583 191.889 47.4189C191.889 46.8795 191.709 46.4454 191.356 46.1416C190.996 45.8378 190.475 45.689 189.787 45.689H187.636L187.958 45.348V49.4835V49.4773ZM191.926 51.9325L190.159 49.4339H190.947L192.726 51.9325H191.932H191.926Z" fill="#020B00"/>
<path d="M196.105 51.9325V49.3781L196.272 49.8307L193.352 45.0566H194.127L196.694 49.2541H196.285L198.851 45.0566H199.577L196.657 49.8307L196.824 49.3781V51.9325H196.105Z" fill="#020B00"/>
<path d="M202.677 51.9933C202.168 51.9933 201.679 51.9127 201.208 51.7453C200.743 51.5779 200.377 51.3609 200.123 51.1005L200.408 50.5425C200.65 50.7781 200.978 50.9765 201.387 51.1377C201.796 51.2989 202.23 51.3795 202.677 51.3795C203.123 51.3795 203.464 51.3237 203.731 51.2183C204.004 51.1129 204.202 50.9641 204.332 50.7781C204.462 50.5921 204.524 50.3937 204.524 50.1705C204.524 49.9039 204.45 49.6869 204.295 49.5195C204.14 49.3583 203.942 49.2281 203.687 49.1289C203.439 49.0359 203.16 48.9491 202.863 48.8809C202.559 48.8065 202.261 48.7321 201.958 48.6515C201.654 48.5709 201.381 48.4593 201.127 48.3229C200.873 48.1865 200.674 48.0005 200.519 47.7773C200.364 47.5541 200.29 47.2565 200.29 46.8907C200.29 46.5497 200.383 46.2397 200.563 45.9545C200.743 45.6693 201.022 45.4399 201.394 45.2663C201.765 45.0927 202.243 45.0059 202.826 45.0059C203.21 45.0059 203.594 45.0617 203.973 45.1671C204.351 45.2725 204.679 45.4213 204.958 45.6135L204.71 46.1901C204.413 45.9917 204.103 45.8491 203.774 45.7561C203.446 45.6631 203.123 45.6197 202.813 45.6197C202.404 45.6197 202.057 45.6755 201.79 45.7871C201.524 45.8987 201.325 46.0475 201.195 46.2335C201.065 46.4195 201.003 46.6303 201.003 46.8659C201.003 47.1325 201.077 47.3495 201.232 47.5169C201.387 47.6781 201.592 47.8083 201.84 47.9013C202.094 47.9943 202.367 48.0749 202.671 48.1493C202.974 48.2237 203.272 48.2981 203.57 48.3849C203.867 48.4717 204.14 48.5771 204.394 48.7135C204.648 48.8499 204.847 49.0235 205.002 49.2467C205.157 49.4699 205.231 49.7613 205.231 50.1209C205.231 50.4557 205.138 50.7657 204.958 51.0509C204.779 51.3361 204.493 51.5655 204.115 51.7391C203.737 51.9127 203.253 51.9995 202.664 51.9995L202.677 51.9933Z" fill="#020B00"/>
<path d="M208.288 51.9325V45.6828H205.87V45.0566H211.431V45.6828H209.013V51.9325H208.288Z" fill="#020B00"/>
<path d="M214.406 51.9325V49.3781L214.574 49.8307L211.654 45.0566H212.429L214.995 49.2541H214.58L217.147 45.0566H217.872L214.952 49.8307L215.119 49.3781V51.9325H214.4H214.406Z" fill="#020B00"/>
<path d="M221.927 51.9936C221.406 51.9936 220.929 51.9068 220.495 51.7332C220.061 51.5596 219.677 51.3178 219.354 51.0016C219.032 50.6854 218.784 50.3196 218.604 49.8918C218.424 49.464 218.337 48.999 218.337 48.4968C218.337 47.9946 218.424 47.5296 218.604 47.1018C218.784 46.674 219.038 46.3082 219.36 45.992C219.683 45.6758 220.067 45.434 220.507 45.2604C220.948 45.0868 221.425 45 221.939 45C222.454 45 222.907 45.0806 223.347 45.248C223.787 45.4154 224.159 45.6634 224.457 45.9982L223.998 46.457C223.719 46.1718 223.403 45.961 223.062 45.8308C222.721 45.7006 222.355 45.6386 221.958 45.6386C221.543 45.6386 221.164 45.7068 220.811 45.8494C220.458 45.992 220.148 46.1904 219.887 46.4508C219.627 46.7112 219.422 47.0088 219.274 47.356C219.125 47.697 219.05 48.0752 219.05 48.4906C219.05 48.906 219.125 49.2842 219.274 49.6252C219.422 49.9662 219.627 50.27 219.887 50.5304C220.148 50.7908 220.458 50.9892 220.811 51.1318C221.164 51.2744 221.549 51.3426 221.958 51.3426C222.367 51.3426 222.721 51.2744 223.062 51.1442C223.403 51.014 223.713 50.8032 223.998 50.518L224.457 50.9768C224.153 51.3116 223.787 51.5658 223.347 51.7332C222.907 51.9006 222.435 51.9874 221.933 51.9874L221.927 51.9936Z" fill="#020B00"/>
<path d="M225.454 51.9328V51.4306L230.228 45.4042L230.309 45.677H225.523V45.0508H230.972V45.553L226.205 51.5732L226.118 51.3004H231.09V51.9266H225.448L225.454 51.9328Z" fill="#020B00"/>
<path d="M232.751 51.9325V45.0566H233.353L238.096 51.0273H237.779V45.0566H238.499V51.9325H237.897L233.161 45.9556H233.477V51.9325H232.751Z" fill="#020B00"/>
<path d="M240.966 51.9325V45.0566H245.684V45.6828H241.698V51.3063H245.833V51.9325H240.972H240.966ZM241.611 48.7519V48.1319H245.244V48.7519H241.611Z" fill="#020B00"/>
<path d="M4.67456 18.3532L8.22702 16.4746L8.32002 20.4922C8.32002 22.0484 6.85068 22.8482 5.51153 23.1272C5.20154 23.1892 4.63736 23.2512 4.33977 23.1086C4.06698 22.9226 3.84379 22.4018 3.75079 22.098C3.34161 20.7898 3.31681 19.122 4.67456 18.3594V18.3532Z" fill="#020B00"/>
<path d="M4.26544 13.4176L7.68151 15.5318L4.26544 17.6461C2.92009 18.4335 1.49414 17.5717 0.570379 16.5549C0.359587 16.3193 0.0185993 15.8604 0 15.538C0.0247991 15.2094 0.359587 14.7506 0.570379 14.5212C1.49414 13.5044 2.92009 12.6426 4.26544 13.4238V13.4176Z" fill="#020B00"/>
<path d="M9.21924 20.4844L9.31843 16.4668L12.8709 18.3516C14.2287 19.1142 14.2039 20.782 13.7947 22.0902C13.7017 22.394 13.4723 22.9148 13.2057 23.1008C12.9081 23.2496 12.3439 23.1876 12.0339 23.1194C10.6948 22.8404 9.22544 22.0406 9.21924 20.4844Z" fill="#020B00"/>
<path d="M8.31987 10.5712L8.22068 14.5888L4.66821 12.704C3.31046 11.9414 3.33526 10.2736 3.74444 8.96535C3.83744 8.66155 4.06683 8.14075 4.33342 7.95475C4.63101 7.80595 5.19519 7.86795 5.50518 7.93615C6.84433 8.21515 8.31367 9.01495 8.31987 10.5712Z" fill="#020B00"/>
<path d="M13.274 17.6443L9.85791 15.5301L13.274 13.4159C14.6193 12.6285 16.0453 13.4903 16.969 14.5071C17.1798 14.7427 17.5208 15.2015 17.5394 15.5239C17.5146 15.8525 17.1798 16.3113 16.969 16.5407C16.0453 17.5575 14.6193 18.4193 13.274 17.6381V17.6443Z" fill="#020B00"/>
<path d="M12.871 12.7114L9.31858 14.59L9.22559 10.5724C9.22559 9.01621 10.6949 8.2164 12.0341 7.9374C12.3441 7.8754 12.9082 7.8134 13.2058 7.956C13.4786 8.142 13.7018 8.6628 13.7948 8.96661C14.204 10.2748 14.2288 11.9426 12.871 12.7052V12.7114Z" fill="#020B00"/>
<path d="M8.77307 16.0579C9.06412 16.0579 9.30005 15.822 9.30005 15.5309C9.30005 15.2399 9.06412 15.0039 8.77307 15.0039C8.48203 15.0039 8.24609 15.2399 8.24609 15.5309C8.24609 15.822 8.48203 16.0579 8.77307 16.0579Z" fill="#020B00"/>
<path d="M116.73 46.0021H8.7825C8.64619 46.0021 8.53467 45.8891 8.53467 45.7574V25.6392C8.53467 25.5012 8.64619 25.3945 8.7825 25.3945C8.9188 25.3945 9.03032 25.5074 9.03032 25.6392V45.5127H116.737C116.873 45.5127 116.984 45.6257 116.984 45.7574C116.984 45.8891 116.873 46.0021 116.737 46.0021H116.73Z" fill="#020B00"/>
</svg>
