<svg width="1230" height="261" viewBox="0 0 1230 261" fill="none" xmlns="http://www.w3.org/2000/svg">
<g clip-path="url(#clip0_1233_7309)">
<path d="M97.7773 173.387L172.971 9.99609H184.883L260.077 173.387H247.235L176.26 17.4681H181.409L110.651 173.387H97.8084H97.7773ZM125.355 127.408L129.325 117.363H227.195L231.166 127.408H125.355Z" fill="white"/>
<path d="M279 173.388V51.5417H290.198V84.9331L289.02 81.2126C292.432 71.4153 298.202 63.8503 306.298 58.5796C314.395 53.2779 324.507 50.6426 336.667 50.6426V62.0831C336.202 62.0831 335.737 62.0521 335.271 61.9591C334.806 61.897 334.341 61.835 333.876 61.835C320.319 61.835 309.741 66.0826 302.11 74.5467C294.479 83.0418 290.664 94.8234 290.664 109.922V173.419H279V173.388Z" fill="white"/>
<path d="M347.432 61.5882V51.5429H420.299V61.5882H347.432ZM403.021 174.319C392.287 174.319 384.067 171.374 378.39 165.452C372.713 159.53 369.86 151.438 369.86 141.176V24.9414H381.523V140.028C381.523 147.81 383.478 153.794 387.355 158.011C391.233 162.227 396.848 164.305 404.168 164.305C411.489 164.305 418.097 162.041 423.091 157.546L427.992 165.731C424.89 168.676 421.106 170.877 416.67 172.273C412.234 173.668 407.674 174.381 403.021 174.381V174.319Z" fill="white"/>
<path d="M527.041 174.566C514.726 174.566 503.372 172.52 492.949 168.365C482.526 164.242 473.437 158.444 465.744 150.972C458.051 143.5 452.095 134.757 447.876 124.712C443.657 114.666 441.579 103.66 441.579 91.6922C441.579 79.7246 443.689 68.6872 447.876 58.6729C452.095 48.6276 458.082 39.8844 465.868 32.4124C473.654 24.9405 482.712 19.1427 493.073 15.0192C503.434 10.8956 514.819 8.81836 527.289 8.81836C539.759 8.81836 550.089 10.6786 560.233 14.4301C570.346 18.1506 579.001 23.7623 586.166 31.2343L578.69 39.1713C571.525 32.1644 563.707 27.2038 555.208 24.2274C546.708 21.282 537.495 19.7938 527.537 19.7938C516.959 19.7938 507.126 21.592 498.099 25.1575C489.072 28.754 481.192 33.8076 474.523 40.3185C467.823 46.8603 462.642 54.4873 458.982 63.1995C455.321 71.9116 453.491 81.3988 453.491 91.6612C453.491 101.924 455.321 111.442 458.982 120.154C462.642 128.866 467.823 136.493 474.523 143.035C481.223 149.577 489.072 154.63 498.099 158.196C507.126 161.792 516.928 163.56 527.537 163.56C537.185 163.56 546.336 162.071 554.991 159.126C563.645 156.181 571.525 151.282 578.69 144.43L585.453 153.545C578.132 160.552 569.384 165.792 559.178 169.295C548.973 172.799 538.27 174.535 527.072 174.535L527.041 174.566ZM585.422 153.545L573.975 152.15V92.4053H585.422V153.576V153.545Z" fill="white"/>
<path d="M659.933 174.317C650.906 174.317 643.089 172.891 636.451 170.008C629.843 167.124 624.787 163.032 621.282 157.761C617.776 152.459 616.039 146.414 616.039 139.562C616.039 133.33 617.466 127.687 620.351 122.634C623.236 117.58 628.013 113.456 634.714 110.263C641.414 107.069 650.348 105.488 661.577 105.488H706.433V114.603H661.826C649.231 114.603 640.39 116.929 635.334 121.61C630.278 126.292 627.734 132.121 627.734 139.128C627.734 146.91 630.681 153.141 636.606 157.792C642.531 162.474 650.844 164.799 661.608 164.799C672.373 164.799 680.562 162.474 687.635 157.792C694.707 153.11 699.981 146.352 703.393 137.484L706.65 145.421C703.393 154.289 697.81 161.327 689.961 166.535C682.082 171.744 672.093 174.348 659.964 174.348L659.933 174.317ZM703.828 173.387V145.608L703.362 141.391V95.629C703.362 84.2815 700.291 75.6314 694.149 69.7096C688.007 63.7878 679.011 60.8424 667.161 60.8424C658.755 60.8424 650.937 62.2686 643.678 65.152C636.451 68.0354 630.247 71.7248 625.097 76.2514L619.265 67.8493C625.345 62.3926 632.666 58.1761 641.228 55.1377C649.79 52.0993 658.755 50.5801 668.092 50.5801C683.199 50.5801 694.801 54.3936 702.897 62.0206C710.993 69.6476 715.057 80.9951 715.057 96.094V173.356H703.859L703.828 173.387Z" fill="white"/>
<path d="M756.16 173.388V51.5417H767.358V84.9331L766.179 81.2126C769.592 71.4153 775.361 63.8503 783.458 58.5796C791.554 53.2779 801.667 50.6426 813.827 50.6426V62.0831C813.362 62.0831 812.896 62.0521 812.431 61.9591C811.966 61.897 811.501 61.835 811.035 61.835C797.479 61.835 786.901 66.0826 779.27 74.5467C771.639 83.0418 767.823 94.8234 767.823 109.922V173.419H756.16V173.388Z" fill="white"/>
<path d="M884.833 174.318C873.48 174.318 863.243 171.714 854.123 166.505C845.003 161.296 837.806 154.01 832.533 144.678C827.228 135.346 824.591 124.618 824.591 112.465C824.591 100.311 827.228 89.3979 832.533 80.1277C837.837 70.8575 845.034 63.6335 854.123 58.4248C863.243 53.2162 873.48 50.6118 884.833 50.6118C895.567 50.6118 905.276 53.0921 913.9 58.0838C922.554 63.0754 929.379 70.1444 934.466 79.3216C939.523 88.4988 942.067 99.5672 942.067 112.465C942.067 125.363 939.585 136.028 934.591 145.36C929.596 154.692 922.803 161.854 914.148 166.846C905.493 171.838 895.722 174.318 884.833 174.318ZM885.547 163.839C894.884 163.839 903.26 161.699 910.643 157.421C918.025 153.142 923.888 147.127 928.169 139.345C932.45 131.563 934.591 122.603 934.591 112.496C934.591 102.389 932.45 93.2424 928.169 85.5224C923.888 77.8334 918.057 71.8186 910.643 67.54C903.26 63.2615 894.884 61.1222 885.547 61.1222C876.21 61.1222 867.834 63.2615 860.451 67.54C853.068 71.8186 847.205 77.8024 842.925 85.5224C838.644 93.2114 836.503 102.203 836.503 112.496C836.503 122.789 838.644 131.563 842.925 139.345C847.205 147.127 853.037 153.142 860.451 157.421C867.834 161.699 876.21 163.839 885.547 163.839ZM934.808 173.388V133.486L936.917 112.248L934.591 91.0101V0.199219H946.285V173.388H934.839H934.808Z" fill="white"/>
<path d="M1038.04 174.317C1025.73 174.317 1014.87 171.682 1005.47 166.38C996.042 161.079 988.66 153.762 983.293 144.43C977.926 135.097 975.228 124.432 975.228 112.464C975.228 100.497 977.74 89.6144 982.828 80.3752C987.884 71.105 994.864 63.8501 1003.74 58.5484C1012.61 53.2467 1022.57 50.6113 1033.64 50.6113C1044.71 50.6113 1054.61 53.1847 1063.42 58.3003C1072.2 63.447 1079.15 70.6399 1084.2 79.8792C1089.26 89.1494 1091.8 99.8458 1091.8 111.968C1091.8 112.433 1091.77 112.929 1091.68 113.488C1091.59 114.046 1091.55 114.604 1091.55 115.224H983.882V106.109H1085.26L1080.57 110.542C1080.73 101.055 1078.74 92.5288 1074.62 84.9948C1070.49 77.4608 1064.94 71.5391 1057.93 67.2605C1050.92 62.9819 1042.82 60.8427 1033.64 60.8427C1024.46 60.8427 1016.55 62.9819 1009.47 67.2605C1002.4 71.5391 996.818 77.4608 992.785 84.9948C988.722 92.5598 986.705 101.148 986.705 110.79V112.898C986.705 122.851 988.939 131.687 993.375 139.376C997.811 147.065 1003.92 153.08 1011.71 157.358C1019.49 161.637 1028.37 163.776 1038.32 163.776C1046.11 163.776 1053.4 162.381 1060.16 159.56C1066.92 156.769 1072.66 152.491 1077.32 146.724L1084.08 154.413C1078.77 160.955 1072.14 165.884 1064.1 169.233C1056.07 172.581 1047.41 174.255 1038.08 174.255L1038.04 174.317Z" fill="white"/>
<path d="M1120.93 173.388V51.5417H1132.13V85.3981L1130.49 81.6776C1134.21 72.0354 1140.38 64.4394 1148.94 58.9207C1157.5 53.4019 1168.02 50.6426 1180.46 50.6426C1190.42 50.6426 1199.1 52.5648 1206.49 56.3473C1213.87 60.1608 1219.64 65.9276 1223.77 73.6166C1227.89 81.3056 1229.97 90.8548 1229.97 102.202V173.388H1218.31V103.132C1218.31 89.4286 1214.83 79.0113 1207.91 71.8494C1201 64.6874 1191.29 61.1219 1178.85 61.1219C1169.35 61.1219 1161.1 63.0752 1154.09 66.9507C1147.08 70.8262 1141.75 76.2829 1138.09 83.2898C1134.43 90.2968 1132.6 98.6989 1132.6 108.496V173.388H1120.93Z" fill="white"/>
<path d="M628.572 260.199C626.028 260.199 623.577 259.796 621.22 258.959C618.893 258.122 617.063 257.037 615.791 255.735L617.218 252.944C618.428 254.123 620.072 255.115 622.119 255.921C624.167 256.727 626.338 257.13 628.572 257.13C630.805 257.13 632.511 256.851 633.845 256.324C635.21 255.797 636.203 255.053 636.854 254.123C637.505 253.192 637.816 252.2 637.816 251.084C637.816 249.751 637.443 248.666 636.668 247.829C635.892 247.023 634.9 246.372 633.659 245.876C632.418 245.379 631.022 244.976 629.533 244.635C628.013 244.263 626.524 243.891 625.004 243.488C623.484 243.085 622.119 242.527 620.847 241.845C619.576 241.163 618.583 240.233 617.807 239.117C617.032 238 616.66 236.512 616.66 234.683C616.66 232.978 617.125 231.428 618.025 230.001C618.924 228.575 620.32 227.428 622.181 226.56C624.043 225.692 626.431 225.258 629.347 225.258C631.27 225.258 633.194 225.537 635.086 226.064C636.978 226.591 638.622 227.335 640.018 228.296L638.777 231.18C637.288 230.187 635.737 229.474 634.093 229.009C632.449 228.544 630.836 228.327 629.285 228.327C627.207 228.327 625.501 228.606 624.167 229.164C622.833 229.722 621.84 230.467 621.189 231.397C620.537 232.327 620.227 233.381 620.227 234.559C620.227 235.892 620.599 236.977 621.375 237.814C622.15 238.621 623.174 239.272 624.415 239.737C625.687 240.202 627.052 240.605 628.572 240.977C630.092 241.349 631.581 241.721 633.07 242.155C634.559 242.589 635.923 243.116 637.195 243.798C638.467 244.48 639.46 245.348 640.235 246.465C641.011 247.581 641.383 249.038 641.383 250.836C641.383 252.51 640.918 254.061 640.018 255.487C639.088 256.913 637.692 258.06 635.799 258.928C633.907 259.796 631.487 260.23 628.541 260.23L628.572 260.199Z" fill="white"/>
<path d="M656.645 259.889V228.637H644.547V225.506H672.373V228.637H660.275V259.889H656.645Z" fill="white"/>
<path d="M692.505 260.2C688.1 260.2 684.657 258.928 682.144 256.417C679.632 253.906 678.36 250.154 678.36 245.225V225.537H681.989V245.101C681.989 249.162 682.92 252.17 684.75 254.092C686.58 256.014 689.186 257.006 692.505 257.006C695.825 257.006 698.492 256.045 700.322 254.092C702.153 252.17 703.083 249.162 703.083 245.101V225.537H706.62V245.225C706.62 250.185 705.379 253.906 702.866 256.417C700.354 258.928 696.91 260.2 692.505 260.2Z" fill="white"/>
<path d="M718.687 259.889V225.506H732.708C736.368 225.506 739.594 226.219 742.355 227.707C745.116 229.164 747.288 231.18 748.808 233.784C750.359 236.388 751.134 239.365 751.134 242.713C751.134 246.062 750.359 249.069 748.808 251.642C747.257 254.247 745.116 256.262 742.355 257.719C739.594 259.176 736.368 259.92 732.708 259.92H718.687V259.889ZM722.347 256.758H732.522C735.562 256.758 738.23 256.169 740.463 254.96C742.697 253.751 744.465 252.107 745.706 249.999C746.946 247.891 747.567 245.441 747.567 242.713C747.567 239.985 746.946 237.504 745.706 235.396C744.465 233.288 742.728 231.645 740.463 230.467C738.23 229.257 735.562 228.668 732.522 228.668H722.347V256.789V256.758Z" fill="white"/>
<path d="M760.44 259.889V225.506H764.07V259.889H760.44Z" fill="white"/>
<path d="M791.461 260.199C788.855 260.199 786.467 259.765 784.264 258.897C782.062 258.029 780.138 256.789 778.525 255.207C776.912 253.626 775.64 251.766 774.741 249.658C773.841 247.549 773.376 245.224 773.376 242.713C773.376 240.202 773.841 237.876 774.741 235.768C775.64 233.66 776.912 231.799 778.525 230.218C780.138 228.637 782.062 227.397 784.264 226.529C786.467 225.661 788.855 225.227 791.492 225.227C794.129 225.227 796.486 225.661 798.658 226.529C800.86 227.397 802.753 228.606 804.397 230.187C806.01 231.768 807.282 233.598 808.181 235.737C809.081 237.876 809.515 240.202 809.515 242.713C809.515 245.224 809.05 247.549 808.181 249.689C807.282 251.828 806.01 253.657 804.397 255.238C802.784 256.82 800.86 258.029 798.658 258.897C796.455 259.765 794.067 260.199 791.492 260.199H791.461ZM791.461 256.944C793.508 256.944 795.432 256.603 797.2 255.89C798.937 255.176 800.488 254.184 801.76 252.882C803.032 251.58 804.055 250.092 804.769 248.356C805.482 246.619 805.855 244.759 805.855 242.682C805.855 240.605 805.482 238.713 804.769 237.008C804.055 235.272 803.032 233.784 801.76 232.481C800.488 231.179 798.937 230.187 797.2 229.474C795.432 228.761 793.539 228.42 791.461 228.42C789.383 228.42 787.49 228.761 785.722 229.474C783.954 230.187 782.403 231.179 781.1 232.481C779.797 233.784 778.774 235.272 778.06 237.008C777.347 238.713 776.974 240.605 776.974 242.682C776.974 244.759 777.347 246.588 778.06 248.325C778.774 250.061 779.797 251.58 781.1 252.882C782.403 254.184 783.954 255.176 785.722 255.89C787.49 256.603 789.414 256.944 791.461 256.944Z" fill="white"/>
<path d="M832.812 259.889V225.506H856.418V228.637H836.472V259.889H832.843H832.812ZM836.038 245.317V242.186H854.216V245.317H836.038Z" fill="white"/>
<path d="M865.042 259.889V225.506H868.671V256.758H887.935V259.889H865.011H865.042Z" fill="white"/>
<path d="M909.495 260.199C906.889 260.199 904.5 259.765 902.298 258.897C900.095 258.029 898.172 256.789 896.559 255.207C894.946 253.626 893.674 251.766 892.775 249.658C891.875 247.549 891.41 245.224 891.41 242.713C891.41 240.202 891.875 237.876 892.775 235.768C893.674 233.66 894.946 231.799 896.559 230.218C898.172 228.637 900.095 227.397 902.298 226.529C904.5 225.661 906.889 225.227 909.526 225.227C912.163 225.227 914.52 225.661 916.692 226.529C918.894 227.397 920.786 228.606 922.43 230.187C924.043 231.768 925.315 233.598 926.215 235.737C927.114 237.876 927.549 240.202 927.549 242.713C927.549 245.224 927.083 247.549 926.215 249.689C925.315 251.828 924.043 253.657 922.43 255.238C920.817 256.82 918.894 258.029 916.692 258.897C914.489 259.765 912.101 260.199 909.526 260.199H909.495ZM909.495 256.944C911.542 256.944 913.465 256.603 915.234 255.89C916.971 255.176 918.522 254.184 919.794 252.882C921.065 251.58 922.089 250.092 922.803 248.356C923.516 246.619 923.888 244.759 923.888 242.682C923.888 240.605 923.516 238.713 922.803 237.008C922.089 235.272 921.065 233.784 919.794 232.481C918.522 231.179 916.971 230.187 915.234 229.474C913.465 228.761 911.573 228.42 909.495 228.42C907.416 228.42 905.524 228.761 903.756 229.474C901.988 230.187 900.437 231.179 899.134 232.481C897.831 233.784 896.807 235.272 896.094 237.008C895.38 238.713 895.008 240.605 895.008 242.682C895.008 244.759 895.38 246.588 896.094 248.325C896.807 250.061 897.831 251.58 899.134 252.882C900.437 254.184 901.988 255.176 903.756 255.89C905.524 256.603 907.447 256.944 909.495 256.944Z" fill="white"/>
<path d="M936.824 259.889V225.506H949.697C954.04 225.506 957.483 226.56 959.996 228.637C962.509 230.715 963.75 233.598 963.75 237.318C963.75 239.737 963.191 241.845 962.044 243.581C960.896 245.317 959.314 246.682 957.204 247.612C955.095 248.542 952.613 249.007 949.697 249.007H938.84L940.453 247.333V259.92H936.824V259.889ZM940.453 247.612L938.84 245.907H949.604C953.048 245.907 955.653 245.162 957.452 243.643C959.252 242.124 960.12 240.016 960.12 237.318C960.12 234.621 959.221 232.451 957.452 230.932C955.653 229.412 953.048 228.668 949.604 228.668H938.84L940.453 226.963V247.643V247.612ZM960.306 259.889L951.465 247.395H955.405L964.308 259.889H960.337H960.306Z" fill="white"/>
<path d="M981.214 259.889V247.116L982.052 249.379L967.441 225.506H971.319L984.161 246.496H982.114L994.956 225.506H998.586L983.975 249.379L984.813 247.116V259.889H981.214Z" fill="white"/>
<path d="M1014.1 260.199C1011.55 260.199 1009.1 259.796 1006.74 258.959C1004.42 258.122 1002.59 257.037 1001.32 255.735L1002.74 252.944C1003.95 254.123 1005.6 255.115 1007.64 255.921C1009.69 256.727 1011.86 257.13 1014.1 257.13C1016.33 257.13 1018.04 256.851 1019.37 256.324C1020.73 255.797 1021.73 255.053 1022.38 254.123C1023.03 253.192 1023.34 252.2 1023.34 251.084C1023.34 249.751 1022.97 248.666 1022.19 247.829C1021.42 247.023 1020.42 246.372 1019.15 245.876C1017.91 245.41 1016.52 244.976 1015.03 244.635C1013.51 244.263 1012.02 243.891 1010.5 243.488C1008.98 243.085 1007.61 242.527 1006.34 241.845C1005.07 241.163 1004.08 240.233 1003.3 239.117C1002.53 238 1002.15 236.512 1002.15 234.683C1002.15 232.978 1002.62 231.428 1003.52 230.001C1004.42 228.575 1005.81 227.428 1007.68 226.56C1009.54 225.692 1011.92 225.258 1014.84 225.258C1016.76 225.258 1018.69 225.537 1020.58 226.064C1022.47 226.591 1024.12 227.335 1025.51 228.296L1024.27 231.18C1022.78 230.187 1021.23 229.474 1019.59 229.009C1017.94 228.544 1016.33 228.327 1014.78 228.327C1012.73 228.327 1010.99 228.606 1009.66 229.164C1008.33 229.722 1007.33 230.467 1006.68 231.397C1006.03 232.327 1005.72 233.381 1005.72 234.559C1005.72 235.892 1006.09 236.977 1006.87 237.814C1007.64 238.621 1008.67 239.272 1009.91 239.737C1011.18 240.202 1012.55 240.605 1014.07 240.977C1015.59 241.349 1017.07 241.721 1018.56 242.155C1020.05 242.589 1021.42 243.116 1022.69 243.798C1023.96 244.48 1024.95 245.348 1025.73 246.465C1026.5 247.581 1026.88 249.038 1026.88 250.836C1026.88 252.51 1026.41 254.061 1025.51 255.487C1024.61 256.913 1023.19 258.06 1021.29 258.928C1019.4 259.796 1016.98 260.23 1014.03 260.23L1014.1 260.199Z" fill="white"/>
<path d="M1042.17 259.889V228.637H1030.07V225.506H1057.9V228.637H1045.8V259.889H1042.17Z" fill="white"/>
<path d="M1072.79 259.889V247.116L1073.62 249.379L1059.01 225.506H1062.89L1075.73 246.496H1073.66L1086.5 225.506H1090.13L1075.52 249.379L1076.35 247.116V259.889H1072.76H1072.79Z" fill="white"/>
<path d="M1110.42 260.199C1107.81 260.199 1105.42 259.765 1103.25 258.897C1101.08 258.029 1099.16 256.82 1097.54 255.238C1095.93 253.657 1094.69 251.828 1093.79 249.689C1092.89 247.549 1092.45 245.224 1092.45 242.713C1092.45 240.202 1092.89 237.876 1093.79 235.737C1094.69 233.598 1095.96 231.768 1097.57 230.187C1099.19 228.606 1101.11 227.397 1103.31 226.529C1105.51 225.661 1107.9 225.227 1110.48 225.227C1113.05 225.227 1115.32 225.63 1117.52 226.467C1119.72 227.304 1121.58 228.544 1123.07 230.218L1120.78 232.513C1119.38 231.086 1117.8 230.032 1116.09 229.381C1114.39 228.73 1112.56 228.42 1110.57 228.42C1108.49 228.42 1106.6 228.761 1104.83 229.474C1103.06 230.187 1101.51 231.179 1100.21 232.481C1098.91 233.784 1097.88 235.272 1097.14 237.008C1096.39 238.713 1096.02 240.605 1096.02 242.682C1096.02 244.759 1096.39 246.65 1097.14 248.356C1097.88 250.061 1098.91 251.58 1100.21 252.882C1101.51 254.184 1103.06 255.176 1104.83 255.89C1106.6 256.603 1108.52 256.944 1110.57 256.944C1112.62 256.944 1114.39 256.603 1116.09 255.952C1117.8 255.3 1119.35 254.246 1120.78 252.82L1123.07 255.114C1121.55 256.789 1119.72 258.06 1117.52 258.897C1115.32 259.734 1112.96 260.168 1110.45 260.168L1110.42 260.199Z" fill="white"/>
<path d="M1128.07 259.889V257.378L1151.95 227.242L1152.36 228.606H1128.41V225.475H1155.67V227.986L1131.82 258.091L1131.39 256.727H1156.26V259.858H1128.04L1128.07 259.889Z" fill="white"/>
<path d="M1164.58 259.889V225.506H1167.59L1191.32 255.363H1189.74V225.506H1193.33V259.889H1190.32L1166.62 230.001H1168.21V259.889H1164.58Z" fill="white"/>
<path d="M1205.68 259.889V225.506H1229.29V228.637H1209.34V256.758H1230.03V259.889H1205.71H1205.68ZM1208.91 243.984V240.884H1227.08V243.984H1208.91Z" fill="white"/>
<path d="M23.3896 91.9704L41.1644 82.5762L41.6297 102.667C41.6297 110.449 34.2778 114.448 27.5774 115.844C26.0264 116.154 23.2035 116.464 21.7145 115.751C20.3496 114.82 19.2328 112.216 18.7675 110.697C16.7202 104.155 16.5961 95.8149 23.3896 92.0014V91.9704Z" fill="white"/>
<path d="M21.3422 67.2915L38.4346 77.8639L21.3422 88.4362C14.6107 92.3738 7.47598 88.0642 2.8539 82.9795C1.7992 81.8014 0.093062 79.5071 0 77.8949C0.124083 76.2517 1.7992 73.9574 2.8539 72.8102C7.47598 67.7255 14.6107 63.416 21.3422 67.3225V67.2915Z" fill="white"/>
<path d="M46.1279 102.636L46.6243 82.5449L64.3991 91.9702C71.1926 95.7837 71.0685 104.124 69.0212 110.666C68.5559 112.185 67.4081 114.789 66.0742 115.719C64.5852 116.463 61.7623 116.153 60.2113 115.812C53.5108 114.417 46.159 110.418 46.1279 102.636Z" fill="white"/>
<path d="M41.6295 53.0606L41.1332 73.1513L23.3584 63.726C16.5648 59.9125 16.6889 51.5724 18.7363 45.0306C19.2016 43.5114 20.3493 40.907 21.6832 39.9769C23.1722 39.2328 25.9951 39.5429 27.5461 39.8839C34.2466 41.2791 41.5985 45.2786 41.6295 53.0606Z" fill="white"/>
<path d="M66.4151 88.4355L49.3228 77.8631L66.4151 67.2907C73.1466 63.3532 80.2814 67.6628 84.9034 72.7474C85.9581 73.9256 87.6643 76.2199 87.7573 77.8321C87.6333 79.4753 85.9581 81.7696 84.9034 82.9168C80.2814 88.0014 73.1466 92.311 66.4151 88.4045V88.4355Z" fill="white"/>
<path d="M64.3988 63.7574L46.624 73.1517L46.1587 53.061C46.1587 45.279 53.5106 41.2795 60.211 39.8843C61.7621 39.5743 64.585 39.2642 66.0739 39.9773C67.4389 40.9074 68.5556 43.5118 69.0209 45.031C71.0683 51.5728 71.1924 59.9129 64.3988 63.7264V63.7574Z" fill="white"/>
<path d="M43.8941 80.4992C45.3503 80.4992 46.5308 79.3193 46.5308 77.8639C46.5308 76.4084 45.3503 75.2285 43.8941 75.2285C42.4378 75.2285 41.2573 76.4084 41.2573 77.8639C41.2573 79.3193 42.4378 80.4992 43.8941 80.4992Z" fill="white"/>
<path d="M584.367 229.382H43.8941C43.2117 229.382 42.6533 228.823 42.6533 228.172V128.742C42.6533 128.06 43.2117 127.533 43.8941 127.533C44.5766 127.533 45.135 128.091 45.135 128.742V226.963H584.398C585.081 226.963 585.639 227.521 585.639 228.172C585.639 228.823 585.081 229.382 584.398 229.382H584.367Z" fill="white"/>
</g>
<defs>
<clipPath id="clip0_1233_7309">
<rect width="1230" height="260" fill="white" transform="translate(0 0.199219)"/>
</clipPath>
</defs>
</svg>
